<svg width="32" height="32" viewBox="0 0 32 32" fill="none" xmlns="http://www.w3.org/2000/svg">
<path d="M1 4.75C1 2.67893 2.67893 1 4.75 1H27.25C29.3211 1 31 2.67893 31 4.75V27.25C31 29.3211 29.3211 31 27.25 31H4.75C2.67893 31 1 29.3211 1 27.25V4.75ZM17.7451 13.3523L13.4494 13.8906L13.2956 14.6047L14.1416 14.7585C14.6909 14.8904 14.8007 15.0881 14.6799 15.6375L13.2956 22.1414C12.9331 23.8223 13.4934 24.6133 14.8117 24.6133C15.8334 24.6133 17.02 24.1409 17.5583 23.4927L17.7231 22.7126C17.3496 23.0422 16.8002 23.1741 16.4377 23.1741C15.9213 23.1741 15.7346 22.8115 15.8664 22.1743L17.7451 13.3523ZM16 11.3125C17.0355 11.3125 17.875 10.473 17.875 9.4375C17.875 8.40197 17.0355 7.5625 16 7.5625C14.9645 7.5625 14.125 8.40197 14.125 9.4375C14.125 10.473 14.9645 11.3125 16 11.3125Z" fill="#FFC700"/>
</svg>
